<svg id="Layer_1" data-name="Layer 1" xmlns="http://www.w3.org/2000/svg" viewBox="0 0 172.91 83.64"><defs><style>.cls-1{font-size:50px;fill:#db7d33;font-family:ForteMT, Forte;letter-spacing:-0.18em;}.cls-2{letter-spacing:-0.2em;}.cls-3{letter-spacing:-0.18em;}</style></defs><text class="cls-1" transform="translate(0 72.95)">B<tspan class="cls-2" x="23.99" y="0">H</tspan><tspan class="cls-3" x="51.69" y="0">ANSA</tspan></text><g id="hat"><path d="M187.62,101.29s6.52,1,7.35,1.52,3.73,3.17,4.79,3.8c4.79,2.81,6.83.62,6.93.29s.14,1-2.53,1.39a6.25,6.25,0,0,1-5.52-1.59,31.89,31.89,0,0,0-4.08-3.38C193,102.43,187.62,101.29,187.62,101.29Z" transform="translate(-47.54 -75.05)"/><path d="M183,110.39l4.23-14.92s-3-10.49-2.05-12.37S194,80.77,194,80.77s-5.21-1.7-8.08,0-2.85,1.67-2.88,4.08,2.63,10.74,2.63,10.74Z" transform="translate(-47.54 -75.05)"/><path d="M193.55,83.79s2.17-8.54,10.7-6.36a10.2,10.2,0,0,1,8.05,10.25s1.41-10.79-7.53-12.45S193.55,83.79,193.55,83.79Z" transform="translate(-47.54 -75.05)"/><path d="M213.13,83.47s9,4.78,5.44,10.22-7.13,6.08-7.13,6.08l-3.57,14s-9.3-4.94-15.93-4.7a20.85,20.85,0,0,0-10.54,3s5.54-2.15,10.13-2.12,11,3.15,11,3.15l6.48,3.8,3.83-15.83s4.92-3.4,6.3-5.1c1-1.26,1.94-2,.64-6.23S213.13,83.47,213.13,83.47Z" transform="translate(-47.54 -75.05)"/><path d="M194,89.7c3.32.85,1.15,9.51,1.15,9.51S190.67,88.86,194,89.7Z" transform="translate(-47.54 -75.05)"/><path d="M202.69,101s4.23-10.9,7.12-8.41S202.69,101,202.69,101Z" transform="translate(-47.54 -75.05)"/><path d="M202,86.3s-.14,14.39-2.42,12.93S202,86.3,202,86.3Z" transform="translate(-47.54 -75.05)"/></g></svg>